# xmcd
#
# Track frame offsets:
#	150
#	19535
#	55559
#	74314
#	91451
#	113225
#	132397
#	159808
#	178977
#	195072
#	214342
#	225696
#	254939
#	276186
#	302122
#
# Disc length: 4519 seconds
#
# Revision: 0
# Processed by: cddbd v1.5.2PL0 Copyright (c) Steve Scherf et al.
# Submitted via: dBpowerAMP V4.0
#
DISCID=d211a50f
DTITLE=Various Artist - The Ultimate Blues Collection
DYEAR=1900
DGENRE=Blues
TTITLE0=Right Next Door (Because of you) - Robert Cray Band
TTITLE1=Voodoo Chile - Stevie Ray Vaughan
TTITLE2=Lie to Me - Jonny Lang
TTITLE3=Something to Talk About - Bonnie Rait
TTITLE4=Shotgun Blues - Kenny Wayne Sheppard Band
TTITLE5=Stateboro Blues - The Allman Brothers Band
TTITLE6=One Bourbon, One Scotch and One Beer (live) - George Thorogood
TTITLE7=The Hunter - Free
TTITLE8=All Your Love - John Mayalls Blues Breakers
TTITLE9=Crossroads - Cream
TTITLE10=You Shook Me - Jeff Beck feat. Rod Stewart
TTITLE11=I cant get next to You - Savoy Brown
TTITLE12=Blue Jean Blues - ZZ Top
TTITLE13=I just want to make love to you - Robben Ford
TTITLE14=Green Onions - Roy Buchanan
EXTD=
EXTT0=
EXTT1=
EXTT2=
EXTT3=
EXTT4=
EXTT5=
EXTT6=
EXTT7=
EXTT8=
EXTT9=
EXTT10=
EXTT11=
EXTT12=
EXTT13=
EXTT14=
PLAYORDER=
